<?xml version="1.0" encoding="UTF-8"?>
<svg width="36px" height="44px" viewBox="0 0 36 44" version="1.1" xmlns="http://www.w3.org/2000/svg" xmlns:xlink="http://www.w3.org/1999/xlink">
    <!-- Generator: Sketch 48.2 (47327) - http://www.bohemiancoding.com/sketch -->
    <title>Eps</title>
    <desc>Created with Sketch.</desc>
    <defs></defs>
    <g id="Bundle-Public-Profile-:-Laptop" stroke="none" stroke-width="1" fill="none" fill-rule="evenodd" transform="translate(-559.000000, -874.000000)">
        <g id="Eps" transform="translate(559.000000, 874.000000)" fill-rule="nonzero">
            <path d="M31.7619038,43 L4.23809514,43 C2.44974458,43 1,41.5535354 1,39.7692308 L1,4.23077018 C1,2.44646565 2.44974458,1.00000103 4.23809514,1.00000103 L25.2857136,1.00000103 C26.1408055,0.999320208 26.9614554,1.33612878 27.5685706,1.93692408 L34.0447609,8.30153931 C34.6568247,8.90859499 35.0006828,9.73431341 34.999999,10.5953854 L34.999999,39.7692308 C34.999999,41.5535354 33.5502544,43 31.7619038,43 Z" id="Shape" fill="#453112"></path>
            <path d="M32.5714276,42 C33.3661412,42 33.9999989,41.3742687 33.9999989,40.6153847 L33.9999996,10.0507032 C34.0002914,9.68714603 33.8528677,9.33687867 33.5943033,9.0831143 L26.7322133,2.41059483 C26.4642307,2.14820808 26.0985113,1.99969902 25.7142849,2.00000108 L3.42857133,2.00000108 C2.63385768,2.00000108 2,2.62573238 2,3.38461638 L2,40.6153847 C2,41.3742687 2.63385768,42 3.42857133,42 L32.5714276,42 Z M32.5714276,44 L3.42857133,44 C1.53502367,44 0,42.4846561 0,40.6153847 L0,3.38461638 C0,1.51534497 1.53502367,1.07920577e-06 3.42857133,1.07920577e-06 L25.7142849,1.07920577e-06 C26.6196764,-0.000712163529 27.4885999,0.352134916 28.1314277,0.981539517 L34.9885704,7.64923166 C35.6366379,8.28519475 36.000723,9.1502331 35.9999989,10.0523085 L35.9999989,40.6153847 C35.9999989,42.4846561 34.4649753,44 32.5714276,44 Z" id="Shape" fill="#FFA74F"></path>
            <path d="M25.1238973,18.5034874 C23.2902007,17.2577542 21.0384679,16.7733709 18.849829,17.1538362 L20.4608303,15.5544994 C21.2841324,15.9140178 22.2486126,15.6404942 22.7563906,14.9034857 C23.2641685,14.1664772 23.1712665,13.1749586 22.5352743,12.5435714 C21.8992821,11.9121842 20.900532,11.8199548 20.1581482,12.3240561 C19.4157645,12.8281575 19.140246,13.7856543 19.5023865,14.6029953 L16.1988142,17.8286618 L12.8000774,17.8286618 L12.8000774,21.2027899 L9.62565715,24.3609739 C8.80358108,23.9998936 7.83903364,24.2708521 7.32942351,25.0060267 C6.81981338,25.7412013 6.90947357,26.7323741 7.54287153,27.3656456 C8.17626949,27.9989171 9.17401273,28.0949305 9.91813219,27.5942184 C10.6622516,27.0935063 10.941996,26.1378815 10.5841009,25.3192263 L12.0795452,23.8346099 C11.7214722,25.978949 12.2082722,28.1778514 13.4390399,29.9755231 L13.4390399,32 L17.5175241,32 L17.5175241,27.9510462 L13.8536858,27.9510462 C13.0639598,25.9782736 13.1755643,23.7623437 14.1595721,21.8776156 L16.8785616,21.8776156 L16.8785616,19.1783131 C18.7504875,18.2104844 20.9503833,18.0851949 22.9215158,18.834152 L22.9215158,22.5524412 L27,22.5524412 L27,18.5034874 L25.1238973,18.5034874 Z" id="Shape" fill="#FB9937"></path>
        </g>
    </g>
</svg>