<?xml version="1.0" encoding="UTF-8"?>
<svg width="36px" height="46px" viewBox="0 0 36 46" version="1.1" xmlns="http://www.w3.org/2000/svg" xmlns:xlink="http://www.w3.org/1999/xlink">
    <!-- Generator: Sketch 48.2 (47327) - http://www.bohemiancoding.com/sketch -->
    <title>ICNS</title>
    <desc>Created with Sketch.</desc>
    <defs>
        <filter x="-2.8%" y="-2.3%" width="105.6%" height="109.1%" filterUnits="objectBoundingBox" id="filter-1">
            <feOffset dx="0" dy="2" in="SourceAlpha" result="shadowOffsetOuter1"></feOffset>
            <feColorMatrix values="0 0 0 0 1   0 0 0 0 1   0 0 0 0 1  0 0 0 1 0" type="matrix" in="shadowOffsetOuter1" result="shadowMatrixOuter1"></feColorMatrix>
            <feMerge>
                <feMergeNode in="shadowMatrixOuter1"></feMergeNode>
                <feMergeNode in="SourceGraphic"></feMergeNode>
            </feMerge>
        </filter>
    </defs>
    <g id="Email-Templates" stroke="none" stroke-width="1" fill="none" fill-rule="evenodd">
        <g id="ICNS" fill-rule="nonzero">
            <g id="SVG-Copy-4" filter="url(#filter-1)">
                <path d="M31.7619038,43 L4.23809514,43 C2.44974458,43 1,41.5535354 1,39.7692308 L1,4.23077018 C1,2.44646565 2.44974458,1.00000103 4.23809514,1.00000103 L25.2857136,1.00000103 C26.1408055,0.999320208 26.9614554,1.33612878 27.5685706,1.93692408 L34.0447609,8.30153931 C34.6568247,8.90859499 35.0006828,9.73431341 34.999999,10.5953854 L34.999999,39.7692308 C34.999999,41.5535354 33.5502544,43 31.7619038,43 Z" id="Shape" fill="#24305B"></path>
                <path d="M32.5714276,42 C33.3661412,42 33.9999989,41.3742687 33.9999989,40.6153847 L33.9999996,10.0507032 C34.0002914,9.68714603 33.8528677,9.33687867 33.5943033,9.0831143 L26.7322133,2.41059483 C26.4642307,2.14820808 26.0985113,1.99969902 25.7142849,2.00000108 L3.42857133,2.00000108 C2.63385768,2.00000108 2,2.62573238 2,3.38461638 L2,40.6153847 C2,41.3742687 2.63385768,42 3.42857133,42 L32.5714276,42 Z M32.5714276,44 L3.42857133,44 C1.53502367,44 0,42.4846561 0,40.6153847 L0,3.38461638 C0,1.51534497 1.53502367,1.07920577e-06 3.42857133,1.07920577e-06 L25.7142849,1.07920577e-06 C26.6196764,-0.000712163529 27.4885999,0.352134916 28.1314277,0.981539517 L34.9885704,7.64923166 C35.6366379,8.28519475 36.000723,9.1502331 35.9999989,10.0523085 L35.9999989,40.6153847 C35.9999989,42.4846561 34.4649753,44 32.5714276,44 Z" id="Shape" fill="#4D84FF"></path>
            </g>
            <path d="M24.5257059,19.4989436 C21.7752097,21.0160701 22.2208208,24.9681797 25,26.026378 C24.6179013,26.8786733 24.4345349,27.2587233 23.9418017,28.0137012 C23.2544337,29.0667775 22.286382,30.3790254 21.0847686,30.388245 C20.0183751,30.3995133 19.7438377,29.6896087 18.2963699,29.6978039 C16.848902,29.7049746 16.5477304,30.4005377 15.4792881,30.3902938 C14.2786991,30.3800498 13.3608426,29.1958511 12.6734747,28.1427747 C10.7527371,25.1996926 10.5499073,21.7444138 11.7351304,19.9066521 C12.5782061,18.601575 13.9078687,17.8384019 15.1566042,17.8384019 C16.4278764,17.8384019 17.2279276,18.5401114 18.281004,18.5401114 C19.3023241,18.5401114 19.9241309,17.8363531 21.3941354,17.8363531 C22.507651,17.8363531 23.6867277,18.4468916 24.5257059,19.4989436 Z M20.2795954,16.6603496 C19.7079839,17.400986 18.7214931,17.9736218 17.7667585,17.9439144 C17.5926116,16.9902042 18.0392471,16.0088354 18.5821756,15.3481017 C19.1773481,14.619758 20.1986683,14.0604392 21.0724759,14 C21.2189641,14.9957103 20.8143287,15.9709328 20.2795954,16.6603496 Z" id="Shape-Copy-7" fill="#4D84FF"></path>
        </g>
    </g>
</svg>