<?xml version="1.0" encoding="UTF-8"?>
<svg width="36px" height="46px" viewBox="0 0 36 46" version="1.1" xmlns="http://www.w3.org/2000/svg" xmlns:xlink="http://www.w3.org/1999/xlink">
    <!-- Generator: Sketch 48.2 (47327) - http://www.bohemiancoding.com/sketch -->
    <title>ICO</title>
    <desc>Created with Sketch.</desc>
    <defs>
        <filter x="-2.8%" y="-2.3%" width="105.6%" height="109.1%" filterUnits="objectBoundingBox" id="filter-1">
            <feOffset dx="0" dy="2" in="SourceAlpha" result="shadowOffsetOuter1"></feOffset>
            <feColorMatrix values="0 0 0 0 1   0 0 0 0 1   0 0 0 0 1  0 0 0 1 0" type="matrix" in="shadowOffsetOuter1" result="shadowMatrixOuter1"></feColorMatrix>
            <feMerge>
                <feMergeNode in="shadowMatrixOuter1"></feMergeNode>
                <feMergeNode in="SourceGraphic"></feMergeNode>
            </feMerge>
        </filter>
    </defs>
    <g id="Email-Templates" stroke="none" stroke-width="1" fill="none" fill-rule="evenodd">
        <g id="ICO" fill-rule="nonzero">
            <g id="SVG-Copy-5" filter="url(#filter-1)">
                <path d="M31.7619038,43 L4.23809514,43 C2.44974458,43 1,41.5535354 1,39.7692308 L1,4.23077018 C1,2.44646565 2.44974458,1.00000103 4.23809514,1.00000103 L25.2857136,1.00000103 C26.1408055,0.999320208 26.9614554,1.33612878 27.5685706,1.93692408 L34.0447609,8.30153931 C34.6568247,8.90859499 35.0006828,9.73431341 34.999999,10.5953854 L34.999999,39.7692308 C34.999999,41.5535354 33.5502544,43 31.7619038,43 Z" id="Shape" fill="#49835B"></path>
                <path d="M32.5714276,42 C33.3661412,42 33.9999989,41.3742687 33.9999989,40.6153847 L33.9999996,10.0507032 C34.0002914,9.68714603 33.8528677,9.33687867 33.5943033,9.0831143 L26.7322133,2.41059483 C26.4642307,2.14820808 26.0985113,1.99969902 25.7142849,2.00000108 L3.42857133,2.00000108 C2.63385768,2.00000108 2,2.62573238 2,3.38461638 L2,40.6153847 C2,41.3742687 2.63385768,42 3.42857133,42 L32.5714276,42 Z M32.5714276,44 L3.42857133,44 C1.53502367,44 0,42.4846561 0,40.6153847 L0,3.38461638 C0,1.51534497 1.53502367,1.07920577e-06 3.42857133,1.07920577e-06 L25.7142849,1.07920577e-06 C26.6196764,-0.000712163529 27.4885999,0.352134916 28.1314277,0.981539517 L34.9885704,7.64923166 C35.6366379,8.28519475 36.000723,9.1502331 35.9999989,10.0523085 L35.9999989,40.6153847 C35.9999989,42.4846561 34.4649753,44 32.5714276,44 Z" id="Shape" fill="#73C70B"></path>
            </g>
            <path d="M17.2222222,29 L11,29 L11,22.7777778 L17.2222222,22.7777778 L17.2222222,29 Z M25,29 L18.7777778,29 L18.7777778,22.7777778 L25,22.7777778 L25,29 Z M25,21.2222222 L18.7777778,21.2222222 L18.7777778,15 L25,15 L25,21.2222222 Z M17.2222222,21.2222222 L11,21.2222222 L11,15 L17.2222222,15 L17.2222222,21.2222222 Z" id="Shape" fill="#73C70B"></path>
        </g>
    </g>
</svg>