<?xml version="1.0" encoding="UTF-8"?>
<svg width="36px" height="44px" viewBox="0 0 36 44" version="1.1" xmlns="http://www.w3.org/2000/svg" xmlns:xlink="http://www.w3.org/1999/xlink">
    <!-- Generator: Sketch 48.2 (47327) - http://www.bohemiancoding.com/sketch -->
    <title>PDF</title>
    <desc>Created with Sketch.</desc>
    <defs></defs>
    <g id="Bundle-Public-Profile-:-Laptop" stroke="none" stroke-width="1" fill="none" fill-rule="evenodd" transform="translate(-674.000000, -874.000000)">
        <g id="PDF" transform="translate(674.000000, 874.000000)" fill-rule="nonzero">
            <path d="M31.7619038,43 L4.23809514,43 C2.44974458,43 1,41.5535354 1,39.7692308 L1,4.23077018 C1,2.44646565 2.44974458,1.00000103 4.23809514,1.00000103 L25.2857136,1.00000103 C26.1408055,0.999320208 26.9614554,1.33612878 27.5685706,1.93692408 L34.0447609,8.30153931 C34.6568247,8.90859499 35.0006828,9.73431341 34.999999,10.5953854 L34.999999,39.7692308 C34.999999,41.5535354 33.5502544,43 31.7619038,43 Z" id="Shape-Copy" fill="#370C0F"></path>
            <path d="M26.9996387,25.2171703 C26.9900393,24.9899094 26.8960916,24.7743823 26.736135,24.6126617 C26.0143358,24.1784977 25.1719256,23.988276 24.3336008,24.070154 C23.2959302,24.0710244 22.2597486,24.1487381 21.2335567,24.3026573 C20.6788447,24.0108015 20.1588746,23.6572217 19.6835346,23.2486423 C18.4806372,22.0867127 17.5674401,20.6585148 17.0174967,19.079083 L17.1259982,18.6140764 C17.2965007,17.885566 17.4050022,15.5140323 17.4050022,15.5140323 L16.8624945,17.6220623 C16.8624945,17.7925647 16.753993,17.9785673 16.6919921,18.1800702 C16.3622771,17.0774233 16.1798592,15.9360085 16.1494844,14.7855219 C16.1495009,14.396159 16.1806001,14.0074188 16.2424857,13.6230054 C16.2446535,13.4240307 16.3356108,13.2364313 16.4904892,13.1114981 C16.7074923,13.1114981 16.9399956,13.4835034 17.1879991,14.0415113 C17.349161,14.4718692 17.4178205,14.9313595 17.389502,15.3900305 C17.5089045,14.9559528 17.5663072,14.5071678 17.5600044,14.0570116 C17.5600044,13.7625074 17.25,13.0029966 16.6454914,13.0029966 L16.335487,13.0029966 C15.929724,12.9707141 15.5488403,13.201742 15.3899735,13.5765047 C15.1810578,15.6104453 15.4299777,17.665358 16.1184839,19.5905903 L15.916981,20.1020976 C15.3899735,21.3886159 14.7389643,22.6596339 14.1499559,23.8066503 C11.7629219,28.4567164 9.90289548,31.0142528 8.66287784,31.1847552 C9.1368641,29.8544222 10.0148085,28.7055073 11.1739136,27.8987085 C11.3289158,27.7747067 11.979925,27.1546979 11.979925,27.1546979 L10.9104098,27.7437063 C9.08138379,28.8287217 8.16687078,29.9292374 8.0273688,30.6577477 C7.9571543,30.8704558 8.02488867,31.1044472 8.19787122,31.2467561 L8.66287784,31.4792594 C9.93389592,32.1147685 11.4994182,30.4407446 13.5764477,26.8291933 C15.9135605,26.0685402 18.3084165,25.4983364 20.7375496,25.124169 C22.4023841,26.1835 24.3449497,26.7231016 26.317629,26.6741911 C26.5023097,26.6158738 26.664628,26.502251 26.7826356,26.3486864 C26.8633999,26.153442 26.9256735,25.9510528 26.9686383,25.7441778 C26.8794162,25.8660306 26.7691912,25.9710067 26.6431336,26.0541822 C25.0784342,26.1302293 23.527421,25.7303165 22.1945704,24.9071659 C23.4610643,24.684749 24.7566309,24.684749 26.0231248,24.9071659 C26.9686383,25.2171703 26.9686383,25.5271747 26.9686383,25.5891756 C26.9917404,25.4665703 27.0021289,25.3419083 26.9996387,25.2171703 Z M13.7469502,26.2711853 C14.1034552,25.6356763 14.4909608,24.9381664 14.8939665,24.1786556 C15.5253442,22.9986538 16.0743293,21.776385 16.5369899,20.5206035 C17.1653097,21.8173185 18.0513593,22.9723475 19.1410269,23.9151518 C19.3890304,24.1321549 19.6525342,24.3336578 19.9315382,24.5196604 C17.814154,24.8844045 15.741154,25.4714948 13.7469502,26.2711853 Z" id="Shape" stroke="#D0101F" fill="#D0101F" stroke-linecap="round" stroke-linejoin="round"></path>
            <path d="M32.5714276,42 C33.3661412,42 33.9999989,41.3742687 33.9999989,40.6153847 L33.9999996,10.0507032 C34.0002914,9.68714603 33.8528677,9.33687867 33.5943033,9.0831143 L26.7322133,2.41059483 C26.4642307,2.14820808 26.0985113,1.99969902 25.7142849,2.00000108 L3.42857133,2.00000108 C2.63385768,2.00000108 2,2.62573238 2,3.38461638 L2,40.6153847 C2,41.3742687 2.63385768,42 3.42857133,42 L32.5714276,42 Z M32.5714276,44 L3.42857133,44 C1.53502367,44 0,42.4846561 0,40.6153847 L0,3.38461638 C0,1.51534497 1.53502367,1.07920577e-06 3.42857133,1.07920577e-06 L25.7142849,1.07920577e-06 C26.6196764,-0.000712163529 27.4885999,0.352134916 28.1314277,0.981539517 L34.9885704,7.64923166 C35.6366379,8.28519475 36.000723,9.1502331 35.9999989,10.0523085 L35.9999989,40.6153847 C35.9999989,42.4846561 34.4649753,44 32.5714276,44 Z" id="Shape-Copy-2" fill="#D0101F"></path>
        </g>
    </g>
</svg>