<?xml version="1.0" encoding="UTF-8"?>
<svg width="36px" height="44px" viewBox="0 0 36 44" version="1.1" xmlns="http://www.w3.org/2000/svg" xmlns:xlink="http://www.w3.org/1999/xlink">
    <!-- Generator: Sketch 48.2 (47327) - http://www.bohemiancoding.com/sketch -->
    <title>PNG</title>
    <desc>Created with Sketch.</desc>
    <defs></defs>
    <g id="Bundle-Public-Profile-:-Laptop" stroke="none" stroke-width="1" fill="none" fill-rule="evenodd" transform="translate(-783.000000, -874.000000)">
        <g id="PNG" transform="translate(783.000000, 874.000000)">
            <path d="M31.7619038,43 L4.23809514,43 C2.44974458,43 1,41.5535354 1,39.7692308 L1,4.23077018 C1,2.44646565 2.44974458,1.00000103 4.23809514,1.00000103 L25.2857136,1.00000103 C26.1408055,0.999320208 26.9614554,1.33612878 27.5685706,1.93692408 L34.0447609,8.30153931 C34.6568247,8.90859499 35.0006828,9.73431341 34.999999,10.5953854 L34.999999,39.7692308 C34.999999,41.5535354 33.5502544,43 31.7619038,43 Z" id="Shape" fill="#A2297A" fill-rule="nonzero"></path>
            <path d="M9.05,14 L27.95,14 C28.529899,14 29,14.4477374 29,15.0000495 L29,33.0009398 C29,33.5532519 28.529899,34.0009893 27.95,34.0009893 L8.882,34.0009893 C8.64807906,34.0009893 8.4237389,33.9124852 8.25833182,33.7549468 C8.09292473,33.5974085 8,33.3837406 8,33.1609477 L8,15.0000495 C8,14.7348199 8.11062468,14.4804534 8.30753788,14.2929077 C8.50445108,14.1053621 8.77152269,14 9.05,14 Z" id="Shape" fill="#FDD2F0" fill-rule="nonzero"></path>
            <rect id="Rectangle-2" fill="#F8FAFF" x="11" y="14" width="3" height="3"></rect>
            <rect id="Rectangle-2-Copy-3" fill="#F8FAFF" x="14" y="17" width="3" height="3"></rect>
            <rect id="Rectangle-2-Copy-10" fill="#F8FAFF" x="14" y="23" width="3" height="3"></rect>
            <rect id="Rectangle-2-Copy-4" fill="#F8FAFF" x="8" y="17" width="3" height="3"></rect>
            <rect id="Rectangle-2-Copy-11" fill="#F8FAFF" x="8" y="23" width="3" height="3"></rect>
            <rect id="Rectangle-2-Copy-7" fill="#F8FAFF" x="11" y="20" width="3" height="3"></rect>
            <rect id="Rectangle-2-Copy-8" fill="#F8FAFF" x="17" y="20" width="3" height="3"></rect>
            <rect id="Rectangle-2-Copy-14" fill="#F8FAFF" x="17" y="26" width="3" height="3"></rect>
            <rect id="Rectangle-2-Copy-9" fill="#F8FAFF" x="23" y="20" width="3" height="3"></rect>
            <rect id="Rectangle-2-Copy-5" fill="#F8FAFF" x="20" y="17" width="3" height="3"></rect>
            <rect id="Rectangle-2-Copy-12" fill="#F8FAFF" x="20" y="23" width="3" height="3"></rect>
            <rect id="Rectangle-2-Copy-6" fill="#F8FAFF" x="26" y="17" width="3" height="3"></rect>
            <rect id="Rectangle-2-Copy-13" fill="#F8FAFF" x="26" y="23" width="3" height="3"></rect>
            <rect id="Rectangle-2-Copy" fill="#F8FAFF" x="17" y="14" width="3" height="3"></rect>
            <rect id="Rectangle-2-Copy-2" fill="#F8FAFF" x="23" y="14" width="3" height="3"></rect>
            <path d="M23.0202484,23.4221919 L20.000436,26.5423463 C17.9760327,28.1557296 16.9760327,28.9749475 17.000436,29 C17.0248393,29.0250525 19.6913606,30.6917192 25,34 L28.0272922,34.0027153 C28.5652911,34.0027153 29.0014253,33.5549779 29.0014253,33.0026658 C29.0014253,31.5092586 29.0014253,29.6891686 29.0014253,27.5423957 L25.0074798,23.4421929 C24.7495592,23.1633687 24.3925243,23.0038379 24.0179908,23.0000683 C23.6434574,22.9962988 23.2834444,23.1486126 23.0202484,23.4221919 Z" id="Shape" fill="#D2319D" fill-rule="nonzero"></path>
            <path d="M9.02005047,34.0007949 L26.2409022,34.0007949 L14.4003166,22.5089458 C13.6360606,21.8303514 12.464439,21.8303514 11.700183,22.5089458 L8.00000002,26.1001486 L8.00000002,33.0301995 C7.99994627,33.2910163 8.10804945,33.5408791 8.29994342,33.7234694 C8.4918374,33.9060598 8.75137257,34.0060112 9.02005047,34.0007949 Z" id="Shape" fill="#FF78D9" fill-rule="nonzero"></path>
            <path d="M32.5714276,42 C33.3661412,42 33.9999989,41.3742687 33.9999989,40.6153847 L33.9999996,10.0507032 C34.0002914,9.68714603 33.8528677,9.33687867 33.5943033,9.0831143 L26.7322133,2.41059483 C26.4642307,2.14820808 26.0985113,1.99969902 25.7142849,2.00000108 L3.42857133,2.00000108 C2.63385768,2.00000108 2,2.62573238 2,3.38461638 L2,40.6153847 C2,41.3742687 2.63385768,42 3.42857133,42 L32.5714276,42 Z M32.5714276,44 L3.42857133,44 C1.53502367,44 0,42.4846561 0,40.6153847 L0,3.38461638 C0,1.51534497 1.53502367,1.07920577e-06 3.42857133,1.07920577e-06 L25.7142849,1.07920577e-06 C26.6196764,-0.000712163529 27.4885999,0.352134916 28.1314277,0.981539517 L34.9885704,7.64923166 C35.6366379,8.28519475 36.000723,9.1502331 35.9999989,10.0523085 L35.9999989,40.6153847 C35.9999989,42.4846561 34.4649753,44 32.5714276,44 Z" id="Shape" fill="#FF78D9" fill-rule="nonzero"></path>
        </g>
    </g>
</svg>